# xmcd
#
# Track frame offsets: 
#        150
#        23040
#        39872
#        57223
#        78918
#        103973
#        121785
#        142137
#        161924
#        176149
#        195106
#        211714
#        235927
#        253179
#        272562
#        291560
#        314247
#
# Disc length: 4376 seconds
#
# Revision: 0
# Processed by: cddbd v1.5.2PL0 Copyright (c) Steve Scherf et al.
# Submitted via: ExactAudioCopy v0.99pb5
#
DISCID=f8111611
DTITLE=Various Artist - De 50 Grootste Rock Classics
DYEAR=2008
DGENRE=Rock
TTITLE0=Golden Earring/Radar Love
TTITLE1=Herman Brood/Saturday Night
TTITLE2=Kane/So Glad You Made It
TTITLE3=K's Choise/Not An Addict
TTITLE4=Meat Loaf/Paradise By The Dashboad Light [edit]
TTITLE5=Santana/Hold On
TTITLE6=Toto/Stop Loving You
TTITLE7=Spandau Ballet/Fight For Ourselfs
TTITLE8=Shocking Blue/Mighty Joe
TTITLE9=Alan Parsons Project/Don't Answer Me
TTITLE10=Boz Scaggs/Lido Shuffle
TTITLE11=Deacon Blue/Your Town
TTITLE12=Blue Oyster Cult/(Don't Fear) The Ripper
TTITLE13=John Farnham/That's Freedom
TTITLE14=Mr. Mister/Kyrie
TTITLE15=Republica/Ready To Go
TTITLE16=The Edgar Winter Group/Free Ride
EXTD=
EXTT0=
EXTT1=
EXTT2=
EXTT3=
EXTT4=
EXTT5=
EXTT6=
EXTT7=
EXTT8=
EXTT9=
EXTT10=
EXTT11=
EXTT12=
EXTT13=
EXTT14=
EXTT15=
EXTT16=
PLAYORDER=
